<?xml version="1.0" encoding="UTF-8"?>
<svg id="a" data-name="Layer 1" xmlns="http://www.w3.org/2000/svg" viewBox="0 0 1703.3389 1011.0938">
  <path d="M56.2329,452.9893c0-183.9189,153.4478-327.9736,351.6914-327.9736,62.9043,0,120.0903,14.4961,172.5103,40.77l-14.2964,69.7622c-44.7954-28.0859-101.981-45.2998-160.1196-45.2998-151.542,0-273.5381,115.9688-273.5381,262.7412s121.043,262.7422,273.5381,262.7422c63.8569,0,118.1836-19.0264,168.6973-50.7363l14.2969,69.7617c-55.2798,29.8984-117.231,46.207-182.9941,46.207-196.3379,0-349.7856-144.0557-349.7856-327.9746Z" fill="#231f20"/>
  <path d="M1629.3018,123.1738v654.6328h-68.3506v-410.6816l-189.3887,330.8271h-1.4238l-185.8291-319.4189v399.2734h-66.9268V123.1738h.7124l253.4673,442.2715,257.0273-442.2715h.7119Z" fill="#231f20"/>
  <path d="M699.0771,784.5298c-102.4093-29.7042,29.2144-114.3919,100.1679-105.9164,18.6351,4.3552,24.5432,21.4954,15.5058,34.1407-3.3726,4.9246-15.274,11.0822-20.8847,14.9419-30.8281,20.9038,36.7987,17.9246,53.2192,16.0188,21.3234-14.7809,47.3794-31.1559,62.2575-49.2354,38.8785-43.0682,40.9585-99.424,6.893-139.1357-11.5869-18.8156-34.7512-33.822-52.4079-49.7575-16.1506-14.5518-25.0064-20.8835-41.1364-35.4438-3.4919.9734-62.7822,8.6562-65.7506,9.447l-23.6303,3.4261c-2.7832,0-3.2362-3.0553-2.279-3.4987,17.81-8.2501,76.9901-31.7439,75.5509-32.7717-1.6176-1.1552-1.4186-1.5422-2.9023-2.9312-4.9024-4.9404-10.3426-10.5559-15.2595-15.4856-20.465-21.2856-42.2339-44.1101-60.9832-66.217-27.617-36.1672-20.3639-86.767,7.437-125.781,35.4587-49.5269,173.462-132.1738,252.2617-115.8146,38.3094,10.7102,44.0047,28.5046,13.0413,51.9344-7.5384,5.9142-14.4555,12.3863-23.8139,17.083.0001-.0002-18.86,9.3719-18.86,9.3719-11.4239,6.198-26.4247,10.0185-40.1057,12.6505-12.5046,2.3733-32.5418,4.0176-40.1317-2.876-3.2164-2.7541-7.0958-5.6738-7.0794-9.5154-.7909-12.9362,17.1845-21.6084,27.9611-31.0072,2.0984-2.8814-5.3628-4.4591-12.9675-3.5878-47.9565,6.7453-71.5286,18.0568-89.6229,50.9868-12.711,27.7478-7.5951,59.2337,15.1063,81.4208,8.0273,7.4402,29.3959,33.2695,36.4685,41.7405,24.3776,29.1949,55.254,55.983,84.9634,82.3912,4.0707-1.0982,53.6222-21.1103,56.8172-22.4087,8.2124-3.3374,41.8284-18.9642,11.9356,5.4643-.2957.2416-13.4464,12.5893-13.9496,13.0925-4.1592,4.1592-28.4935,28.7078-28.4935,28.7078,21.9384,16.699,26.5681,19.1831,41.3502,39.5405,14.8055,19.2042,30.498,40.2274,35.463,62.4514,14.0774,80.0241-85.2657,155.7286-172.3658,206.8045-15.2964,8.4485-34.7348,15.1196-53.2357,19.5433-34.3181,8.2467-77.144,20.4059-110.5398,10.2259Z" fill="#231f20"/>
  <g>
    <path d="M169.5508,960.2427c-3.3887,1.2349-7.0776,1.8521-11.0674,1.8521-7.0303,0-13.2212-1.5508-18.5728-4.6548-5.3525-3.1025-9.4688-7.2822-12.3496-12.54-2.8828-5.2563-4.3228-11.0513-4.3228-17.3848,0-6.7764,1.4561-12.8726,4.3701-18.2876,2.9121-5.415,6.9497-9.6572,12.1123-12.73,5.1611-3.0713,11.0039-4.6074,17.5278-4.6074,3.8623,0,7.4722.5073,10.8296,1.52,3.3564,1.0137,6.3652,2.3438,9.0254,3.9897l-3.7051,8.645c-5.2578-3.5459-10.5449-5.3198-15.8652-5.3198-4.4336,0-8.5352,1.1724-12.3022,3.5146-3.769,2.3442-6.7778,5.5264-9.0254,9.5479-2.2485,4.0225-3.3721,8.4399-3.3721,13.2524,0,4.9399,1.0283,9.4048,3.0874,13.395,2.0571,3.9897,5.0024,7.1099,8.835,9.3574,3.8311,2.249,8.2485,3.3726,13.2524,3.3726,6.1426,0,11.4951-1.7412,16.0552-5.2251l3.895,8.2651c-2.2178,1.4575-5.0205,2.8022-8.4077,4.0376Z" fill="#231f20"/>
    <path d="M202.6572,892.6499v68.6851h-9.2153v-68.6851h9.2153Z" fill="#231f20"/>
    <path d="M282.2661,892.6499v70.9648h-.2852l-50.4448-51.2046.1899,48.9248h-9.3101v-70.7749h.4751l50.3501,51.7749-.1899-49.6851h9.2148Z" fill="#231f20"/>
    <path d="M344.0635,960.2427c-3.3887,1.2349-7.0776,1.8521-11.0674,1.8521-7.0303,0-13.2212-1.5508-18.5728-4.6548-5.3525-3.1025-9.4688-7.2822-12.3496-12.54-2.8828-5.2563-4.3228-11.0513-4.3228-17.3848,0-6.7764,1.4561-12.8726,4.3701-18.2876,2.9121-5.415,6.9497-9.6572,12.1123-12.73,5.1611-3.0713,11.0039-4.6074,17.5278-4.6074,3.8623,0,7.4722.5073,10.8296,1.52,3.3564,1.0137,6.3652,2.3438,9.0254,3.9897l-3.7051,8.645c-5.2578-3.5459-10.5449-5.3198-15.8652-5.3198-4.4336,0-8.5352,1.1724-12.3022,3.5146-3.769,2.3442-6.7778,5.5264-9.0254,9.5479-2.2485,4.0225-3.3721,8.4399-3.3721,13.2524,0,4.9399,1.0283,9.4048,3.0874,13.395,2.0571,3.9897,5.0024,7.1099,8.835,9.3574,3.8311,2.249,8.2485,3.3726,13.2524,3.3726,6.1426,0,11.4951-1.7412,16.0552-5.2251l3.895,8.2651c-2.2178,1.4575-5.0205,2.8022-8.4077,4.0376Z" fill="#231f20"/>
    <path d="M377.1699,892.6499v68.6851h-9.2153v-68.6851h9.2153Z" fill="#231f20"/>
    <path d="M456.7788,892.6499v70.9648h-.2852l-50.4448-51.2046.1899,48.9248h-9.3101v-70.7749h.4751l50.3501,51.7749-.1899-49.6851h9.2148Z" fill="#231f20"/>
    <path d="M536.3887,892.6499v70.9648h-.2852l-50.4448-51.2046.1899,48.9248h-9.3101v-70.7749h.4751l50.3501,51.7749-.1899-49.6851h9.2148Z" fill="#231f20"/>
    <path d="M592.1533,943.2852h-26.4097l-7.3149,18.0498h-9.1201l30.0195-71.5352h.5703l30.0205,71.5352h-10.6406l-7.125-18.0498ZM589.0186,935.3052l-9.7852-25.0801-10.165,25.0801h19.9502Z" fill="#231f20"/>
    <path d="M657.8936,892.6499v8.835h-18.4307v59.8501h-9.2148v-59.8501h-17.9551v-8.835h45.6006Z" fill="#231f20"/>
    <path d="M681.8311,892.6499v68.6851h-9.2148v-68.6851h9.2148Z" fill="#231f20"/>
    <path d="M759.2559,901.6748c-2.7881-.8223-5.415-1.2349-7.8857-1.2349-3.7373,0-6.6973.8403-8.8818,2.5176-2.1855,1.6787-3.2773,3.9751-3.2773,6.8872,0,2.8501,1.2822,5.1777,3.8467,6.9829,2.5654,1.8047,6.2227,3.5952,10.9727,5.3672,3.5459,1.2676,6.5391,2.6455,8.9775,4.1328,2.4375,1.4888,4.4648,3.5474,6.0801,6.1748,1.6152,2.6289,2.4229,5.9702,2.4229,10.0225,0,3.6738-.9189,6.999-2.7549,9.9751-1.8379,2.9775-4.4502,5.3198-7.8379,7.0298-3.3887,1.71-7.3623,2.5649-11.9229,2.5649-4.2432,0-8.3281-.6812-12.2549-2.0425-3.9277-1.3608-7.3789-3.0874-10.3545-5.1772l4.085-7.3149c2.3418,1.7739,5.1611,3.2773,8.4551,4.5122,3.292,1.2354,6.3643,1.8525,9.2148,1.8525,3.6719,0,6.8877-.9497,9.6426-2.8496,2.7549-1.9004,4.1318-4.7178,4.1318-8.4551,0-3.1665-1.1562-5.6836-3.4668-7.5527-2.3125-1.8672-5.5576-3.625-9.7373-5.2725-3.8643-1.4561-7.0781-2.8813-9.6426-4.2749-2.5654-1.3926-4.7666-3.3086-6.6025-5.7476-1.8379-2.4375-2.7549-5.4937-2.7549-9.1675,0-5.3823,1.8828-9.7373,5.6523-13.0625,3.7666-3.3252,8.6592-5.0825,14.6768-5.2725,7.4102,0,14.2812,1.8374,20.6152,5.5098l-3.5146,7.125c-2.4697-1.3296-5.0986-2.4058-7.8848-3.23Z" fill="#231f20"/>
    <path d="M828.9375,960.2427c-3.3896,1.2349-7.0781,1.8521-11.0684,1.8521-7.0293,0-13.2207-1.5508-18.5723-4.6548-5.3525-3.1025-9.4688-7.2822-12.3496-12.54-2.8828-5.2563-4.3223-11.0513-4.3223-17.3848,0-6.7764,1.4561-12.8726,4.3691-18.2876s6.9502-9.6572,12.1133-12.73c5.1611-3.0713,11.0029-4.6074,17.5273-4.6074,3.8623,0,7.4717.5073,10.8301,1.52,3.3555,1.0137,6.3643,2.3438,9.0244,3.9897l-3.7051,8.645c-5.2568-3.5459-10.5449-5.3198-15.8643-5.3198-4.4346,0-8.5352,1.1724-12.3027,3.5146-3.7686,2.3442-6.7773,5.5264-9.0254,9.5479-2.249,4.0225-3.3721,8.4399-3.3721,13.2524,0,4.9399,1.0283,9.4048,3.0869,13.395,2.0576,3.9897,5.0029,7.1099,8.835,9.3574,3.832,2.249,8.249,3.3726,13.2529,3.3726,6.1426,0,11.4951-1.7412,16.0547-5.2251l3.8955,8.2651c-2.2178,1.4575-5.0205,2.8022-8.4072,4.0376Z" fill="#231f20"/>
    <path d="M907.2627,961.335h-9.2158v-30.1152h-36.0049v30.1152h-9.2148v-68.6851h9.2148v29.7349h36.0049v-29.7349h9.2158v68.6851Z" fill="#231f20"/>
    <path d="M927.4971,909.5601c3.166-5.3823,7.4248-9.6738,12.7773-12.8726,5.3506-3.1973,11.1934-4.7974,17.5273-4.7974,6.2695,0,12.0957,1.6001,17.4795,4.7974,5.3828,3.1987,9.6738,7.4902,12.873,12.8726,3.1973,5.3838,4.7969,11.21,4.7969,17.48,0,6.334-1.583,12.1924-4.75,17.5747-3.167,5.3843-7.457,9.6426-12.8721,12.7778-5.415,3.1348-11.2578,4.7021-17.5273,4.7021-6.334,0-12.1924-1.5508-17.5752-4.6548-5.3838-3.1025-9.6426-7.3296-12.7773-12.6826-3.1348-5.3511-4.7021-11.2573-4.7021-17.7173,0-6.27,1.582-12.0962,4.75-17.48ZM935.667,940.1499c2.2793,3.9902,5.3984,7.1577,9.3574,9.5,3.957,2.3438,8.2793,3.5151,12.9668,3.5151s8.9775-1.1548,12.873-3.4678c3.8945-2.311,6.9658-5.4771,9.2148-9.5,2.2471-4.021,3.3721-8.4072,3.3721-13.1572s-1.1396-9.1514-3.4199-13.2051c-2.2793-4.0522-5.3838-7.251-9.3096-9.5952-3.9277-2.3423-8.2344-3.5146-12.9199-3.5146s-8.9941,1.1875-12.9199,3.5625c-3.9277,2.375-7.0156,5.5898-9.2627,9.6426-2.249,4.0537-3.3721,8.4546-3.3721,13.2046,0,4.688,1.1396,9.0254,3.4199,13.0151Z" fill="#231f20"/>
    <path d="M1008.9121,909.5601c3.166-5.3823,7.4248-9.6738,12.7773-12.8726,5.3506-3.1973,11.1934-4.7974,17.5273-4.7974,6.2695,0,12.0957,1.6001,17.4795,4.7974,5.3828,3.1987,9.6738,7.4902,12.873,12.8726,3.1973,5.3838,4.7969,11.21,4.7969,17.48,0,6.334-1.583,12.1924-4.75,17.5747-3.167,5.3843-7.457,9.6426-12.8721,12.7778-5.415,3.1348-11.2578,4.7021-17.5273,4.7021-6.334,0-12.1924-1.5508-17.5752-4.6548-5.3838-3.1025-9.6426-7.3296-12.7773-12.6826-3.1348-5.3511-4.7021-11.2573-4.7021-17.7173,0-6.27,1.582-12.0962,4.75-17.48ZM1017.082,940.1499c2.2793,3.9902,5.3984,7.1577,9.3574,9.5,3.957,2.3438,8.2793,3.5151,12.9668,3.5151s8.9775-1.1548,12.873-3.4678c3.8945-2.311,6.9658-5.4771,9.2148-9.5,2.2471-4.021,3.3721-8.4072,3.3721-13.1572s-1.1396-9.1514-3.4199-13.2051c-2.2793-4.0522-5.3838-7.251-9.3096-9.5952-3.9277-2.3423-8.2344-3.5146-12.9199-3.5146s-8.9941,1.1875-12.9199,3.5625c-3.9277,2.375-7.0156,5.5898-9.2627,9.6426-2.249,4.0537-3.3721,8.4546-3.3721,13.2046,0,4.688,1.1396,9.0254,3.4199,13.0151Z" fill="#231f20"/>
    <path d="M1099.0654,892.6499v59.7549h34.96v8.9302h-44.1748v-68.6851h9.2148Z" fill="#231f20"/>
    <path d="M1187.21,962.3149c-5.0635,0-8.8447-1.4531-11.3438-4.3608-2.499-2.9072-3.748-6.6475-3.748-11.2212,0-4.2139.7266-8.2153,2.1807-12.0049,1.4531-3.7891,3.4463-7.1372,5.9775-10.0449,2.5312-2.9072,5.4229-5.2017,8.6729-6.8848,3.25-1.6821,6.6562-2.5234,10.2168-2.5234,5.0635,0,8.8604,1.4785,11.3926,4.4346,2.5312,2.957,3.7979,6.7056,3.7979,11.2456,0,4.2139-.7275,8.2075-2.1807,11.9805-1.4541,3.7729-3.4385,7.1133-5.9541,10.0205-2.5156,2.9077-5.4062,5.1938-8.6729,6.8599s-6.7129,2.499-10.3389,2.499ZM1186.7695,960.4038c1.666,0,3.29-.5464,4.875-1.6411,1.584-1.0942,3.0947-2.5972,4.5322-4.5083s2.7607-4.0913,3.9697-6.5415c1.208-2.4497,2.2539-5.0225,3.1357-7.7173.8818-2.6953,1.5674-5.3818,2.0576-8.0605.4902-2.6782.7354-5.1943.7354-7.5459,0-2.2212-.5312-3.9692-1.5928-5.2432s-2.6875-1.9111-4.875-1.9111c-1.666,0-3.292.5474-4.876,1.6416-1.585,1.0947-3.0957,2.5972-4.5322,4.5078-1.4375,1.9111-2.7607,4.084-3.9688,6.5171-1.209,2.4341-2.2539,5.0063-3.1367,7.7178-.8818,2.7114-1.5674,5.4067-2.0576,8.085-.4902,2.6787-.7354,5.1938-.7354,7.5459,0,2.2217.5225,3.9688,1.5684,5.2432,1.0449,1.2739,2.6777,1.9106,4.9004,1.9106Z" fill="#231f20"/>
    <path d="M1209.749,986.8149c-2.4502,0-4.5156-.4331-6.1982-1.2983-1.6826-.8662-2.9561-1.9771-3.8223-3.332-.8652-1.356-1.2988-2.7524-1.2988-4.1895,0-1.96.5723-3.4717,1.7148-4.5327,1.1445-1.062,2.499-1.5923,4.0674-1.5923,1.6006,0,2.9648.4731,4.0918,1.4209,1.127.9473,1.6904,2.3188,1.6904,4.1157,0,1.1763-.2939,2.1885-.8818,3.0381-.5879.8491-1.3311,1.4946-2.2295,1.9355s-1.7891.6616-2.6709.6616c-.9473,0-1.8447-.2207-2.6953-.6616-.8486-.4409-1.5596-1.0371-2.1309-1.7886s-.8574-1.6167-.8574-2.5967h1.9111c0,.9468.335,1.96,1.0039,3.0381.6699,1.0776,1.6826,2.0005,3.0381,2.7681,1.3564.7676,3.0469,1.1519,5.0713,1.1519,1.8301,0,3.3896-.5068,4.6797-1.519,1.291-1.0132,2.4092-2.4585,3.3564-4.3364.9473-1.8789,1.7803-4.084,2.499-6.6152.7178-2.5317,1.4375-5.3164,2.1562-8.3545l12.2012-52.9199c.7178-3.2012,1.6982-6.2554,2.9395-9.1631,1.2412-2.9072,2.7607-5.5039,4.5576-7.791,1.7959-2.2861,3.8867-4.0913,6.2715-5.4146,2.3838-1.3228,5.0791-1.9844,8.085-1.9844,2.4502,0,4.5078.4331,6.1738,1.2983,1.666.8662,2.9316,1.9771,3.7979,3.332.8652,1.356,1.2988,2.7524,1.2988,4.1895,0,1.8623-.5479,3.3491-1.6416,4.459-1.0947,1.1113-2.459,1.666-4.0918,1.666-1.5684,0-2.9326-.4731-4.0918-1.4209-1.1592-.9473-1.7393-2.3188-1.7393-4.1157,0-1.1431.2773-2.1318.833-2.9648.5547-.833,1.2822-1.4858,2.1807-1.96.8984-.4731,1.8535-.7104,2.8662-.7104.5879,0,1.208.1226,1.8623.3677.6533.2446,1.2656.5879,1.8379,1.0288.5703.4409,1.0283.9722,1.3711,1.5928.3438.6206.5146,1.3066.5146,2.0576h-1.8613c0-.9468-.3359-1.96-1.0049-3.0381-.6699-1.0776-1.666-2.0005-2.9893-2.7681-1.3223-.7676-2.9639-1.1519-4.9238-1.1519-1.7969,0-3.332.5146-4.6064,1.5435-1.2744,1.0293-2.3691,2.4829-3.2832,4.3613-.915,1.8789-1.748,4.0913-2.499,6.6392-.752,2.5483-1.4697,5.3579-2.1553,8.4282l-12.4463,52.7729c-.752,3.168-1.748,6.2061-2.9893,9.1143-1.2422,2.9067-2.752,5.5039-4.5322,7.791-1.7812,2.2861-3.8711,4.0991-6.2725,5.439-2.4004,1.3389-5.1201,2.0088-8.1582,2.0088ZM1223.7139,918.166v-1.9111h31.9482v1.9111h-31.9482Z" fill="#231f20"/>
    <path d="M1356.0918,890.4648v70.8701h-9.1191v-44.46l-25.2705,35.8149h-.1895l-24.7959-34.5801v43.2251h-8.9297v-70.8701h.0947l33.8203,47.8799,34.2949-47.8799h.0947Z" fill="#231f20"/>
    <path d="M1386.3955,945.2324c1.4561,2.439,3.4346,4.3701,5.9375,5.7949,2.501,1.4253,5.2725,2.1377,8.3125,2.1377,3.166,0,6.0322-.6963,8.5977-2.0898,2.5654-1.3926,4.5752-3.3252,6.0322-5.7954,1.4561-2.4697,2.1855-5.2246,2.1855-8.2646v-44.3652h9.0244v44.6499c0,4.8779-1.1396,9.2002-3.4199,12.9678-2.2793,3.7686-5.3838,6.6826-9.3096,8.7397-3.9277,2.0591-8.2979,3.0874-13.1104,3.0874-4.75,0-9.0889-1.0283-13.0146-3.0874-3.9277-2.0571-7.0156-4.9712-9.2627-8.7397-2.249-3.7676-3.3721-8.0898-3.3721-12.9678v-44.6499h9.2148v44.3652c0,3.04.7275,5.7798,2.1846,8.2173Z" fill="#231f20"/>
    <path d="M1473.0361,901.6748c-2.7881-.8223-5.415-1.2349-7.8857-1.2349-3.7373,0-6.6973.8403-8.8818,2.5176-2.1855,1.6787-3.2773,3.9751-3.2773,6.8872,0,2.8501,1.2822,5.1777,3.8467,6.9829,2.5654,1.8047,6.2227,3.5952,10.9727,5.3672,3.5459,1.2676,6.5391,2.6455,8.9775,4.1328,2.4375,1.4888,4.4648,3.5474,6.0801,6.1748,1.6152,2.6289,2.4229,5.9702,2.4229,10.0225,0,3.6738-.9189,6.999-2.7549,9.9751-1.8379,2.9775-4.4502,5.3198-7.8379,7.0298-3.3887,1.71-7.3623,2.5649-11.9229,2.5649-4.2432,0-8.3281-.6812-12.2549-2.0425-3.9277-1.3608-7.3789-3.0874-10.3545-5.1772l4.085-7.3149c2.3418,1.7739,5.1611,3.2773,8.4551,4.5122,3.292,1.2354,6.3643,1.8525,9.2148,1.8525,3.6719,0,6.8877-.9497,9.6426-2.8496,2.7549-1.9004,4.1318-4.7178,4.1318-8.4551,0-3.1665-1.1562-5.6836-3.4668-7.5527-2.3125-1.8672-5.5576-3.625-9.7373-5.2725-3.8643-1.4561-7.0781-2.8813-9.6426-4.2749-2.5654-1.3926-4.7666-3.3086-6.6025-5.7476-1.8379-2.4375-2.7549-5.4937-2.7549-9.1675,0-5.3823,1.8828-9.7373,5.6523-13.0625,3.7666-3.3252,8.6592-5.0825,14.6768-5.2725,7.4102,0,14.2812,1.8374,20.6152,5.5098l-3.5146,7.125c-2.4697-1.3296-5.0986-2.4058-7.8848-3.23Z" fill="#231f20"/>
    <path d="M1509.8936,892.6499v68.6851h-9.2148v-68.6851h9.2148Z" fill="#231f20"/>
    <path d="M1571.6914,960.2427c-3.3896,1.2349-7.0781,1.8521-11.0684,1.8521-7.0293,0-13.2207-1.5508-18.5723-4.6548-5.3525-3.1025-9.4688-7.2822-12.3496-12.54-2.8828-5.2563-4.3223-11.0513-4.3223-17.3848,0-6.7764,1.4561-12.8726,4.3691-18.2876s6.9502-9.6572,12.1133-12.73c5.1611-3.0713,11.0029-4.6074,17.5273-4.6074,3.8623,0,7.4717.5073,10.8301,1.52,3.3555,1.0137,6.3643,2.3438,9.0244,3.9897l-3.7051,8.645c-5.2568-3.5459-10.5449-5.3198-15.8643-5.3198-4.4346,0-8.5352,1.1724-12.3027,3.5146-3.7686,2.3442-6.7773,5.5264-9.0254,9.5479-2.249,4.0225-3.3721,8.4399-3.3721,13.2524,0,4.9399,1.0283,9.4048,3.0869,13.395,2.0576,3.9897,5.0029,7.1099,8.835,9.3574,3.832,2.249,8.249,3.3726,13.2529,3.3726,6.1426,0,11.4951-1.7412,16.0547-5.2251l3.8955,8.2651c-2.2178,1.4575-5.0205,2.8022-8.4072,4.0376Z" fill="#231f20"/>
  </g>
</svg>