<?xml version="1.0" encoding="UTF-8"?>
<svg xmlns="http://www.w3.org/2000/svg" viewBox="0 0 1703.4639 1011.0938">
  <g isolation="isolate">
    <g id="a" data-name="Layer 1">
      <g>
        <g>
          <path d="M56.2324,452.9902c0-183.9199,153.4482-327.9746,351.6919-327.9746,62.9043,0,120.0903,14.4961,172.5103,40.7705l-14.2964,69.7627c-44.7954-28.0859-101.981-45.3008-160.1196-45.3008-151.542,0-273.5381,115.9688-273.5381,262.7422s121.043,262.7412,273.5381,262.7412c63.8569,0,118.1836-19.0264,168.6973-50.7363l14.2969,69.7627c-55.2798,29.8984-117.231,46.2061-182.9941,46.2061-196.3379,0-349.7861-144.0557-349.7861-327.9736Z" fill="#fff"/>
          <g mix-blend-mode="lighten">
            <path d="M1629.3018,123.1738v654.6328h-68.3506v-410.6816l-189.3887,330.8271h-1.4238l-185.8291-319.4189v399.2734h-66.9268V123.1738h.7119l253.4678,442.2715,257.0273-442.2715h.7119Z" fill="#fff" stroke="#fff" stroke-miterlimit="10" stroke-width=".25"/>
          </g>
          <path d="M699.0757,784.5298c-102.4093-29.7042,29.2144-114.3919,100.1679-105.9164,18.6351,4.3552,24.5432,21.4954,15.5058,34.1407-3.3726,4.9246-15.274,11.0822-20.8847,14.9419-30.8281,20.9038,36.7987,17.9246,53.2192,16.0188,21.3234-14.7809,47.3794-31.1559,62.2575-49.2354,38.8785-43.0682,40.9585-99.424,6.893-139.1357-11.5869-18.8156-34.7512-33.822-52.4079-49.7575-16.1506-14.5518-25.0064-20.8835-41.1364-35.4438-3.4919.9734-62.7822,8.6562-65.7506,9.447l-23.6303,3.4261c-2.7832,0-3.2362-3.0553-2.279-3.4987,17.81-8.2501,76.9901-31.7439,75.5509-32.7717-1.6176-1.1552-1.4186-1.5422-2.9023-2.9312-4.9024-4.9404-10.3426-10.5559-15.2595-15.4856-20.465-21.2856-42.2339-44.1101-60.9832-66.217-27.617-36.1672-20.3639-86.767,7.437-125.781,35.4587-49.5269,173.462-132.1738,252.2617-115.8146,38.3094,10.7102,44.0047,28.5046,13.0413,51.9344-7.5384,5.9142-14.4555,12.3863-23.8139,17.083.0001-.0002-18.86,9.3719-18.86,9.3719-11.4239,6.198-26.4247,10.0185-40.1057,12.6505-12.5046,2.3733-32.5418,4.0176-40.1317-2.876-3.2164-2.7541-7.0958-5.6738-7.0794-9.5154-.7909-12.9362,17.1845-21.6084,27.9611-31.0072,2.0984-2.8814-5.3628-4.4591-12.9675-3.5878-47.9565,6.7453-71.5286,18.0568-89.6229,50.9868-12.711,27.7478-7.5951,59.2337,15.1063,81.4208,8.0273,7.4402,29.3959,33.2695,36.4685,41.7405,24.3776,29.1949,55.254,55.983,84.9634,82.3912,4.0707-1.0982,53.6222-21.1103,56.8172-22.4087,8.2124-3.3374,41.8284-18.9642,11.9356,5.4643-.2957.2416-13.4464,12.5893-13.9496,13.0925-4.1592,4.1592-28.4935,28.7078-28.4935,28.7078,21.9384,16.699,26.5681,19.1831,41.3502,39.5405,14.8055,19.2042,30.498,40.2274,35.463,62.4514,14.0774,80.0241-85.2657,155.7286-172.3658,206.8045-15.2964,8.4485-34.7348,15.1196-53.2357,19.5433-34.3181,8.2467-77.144,20.4059-110.5398,10.2259Z" fill="#fff"/>
        </g>
        <g>
          <path d="M169.5513,969.9053c-3.3887,1.2344-7.0776,1.8516-11.0674,1.8516-7.0303,0-13.2212-1.5508-18.5728-4.6543-5.3525-3.1025-9.4688-7.2822-12.3496-12.54-2.8828-5.2568-4.3228-11.0518-4.3228-17.3848,0-6.7764,1.4561-12.873,4.3701-18.2881,2.9121-5.415,6.9497-9.6572,12.1123-12.7295,5.1611-3.0713,11.0039-4.6074,17.5278-4.6074,3.8623,0,7.4722.5068,10.8296,1.5195,3.3564,1.0137,6.3652,2.3438,9.0254,3.9902l-3.7051,8.6445c-5.2578-3.5459-10.5449-5.3193-15.8652-5.3193-4.4336,0-8.5352,1.1719-12.3022,3.5146-3.769,2.3438-6.7778,5.5264-9.0254,9.5479-2.2485,4.0225-3.3721,8.4395-3.3721,13.252,0,4.9404,1.0283,9.4053,3.0874,13.3955,2.0571,3.9893,5.0024,7.1094,8.835,9.3574,3.8311,2.249,8.2485,3.3721,13.2524,3.3721,6.1426,0,11.4951-1.7412,16.0552-5.2246l3.895,8.2646c-2.2178,1.458-5.0205,2.8027-8.4077,4.0381Z" fill="#fff"/>
          <path d="M202.6577,902.3125v68.6846h-9.2153v-68.6846h9.2153Z" fill="#fff"/>
          <path d="M282.2666,902.3125v70.9648h-.2852l-50.4448-51.2051.1899,48.9248h-9.3101v-70.7744h.4751l50.3501,51.7744-.1899-49.6846h9.2148Z" fill="#fff"/>
          <path d="M344.064,969.9053c-3.3887,1.2344-7.0776,1.8516-11.0674,1.8516-7.0303,0-13.2212-1.5508-18.5728-4.6543-5.3525-3.1025-9.4688-7.2822-12.3496-12.54-2.8828-5.2568-4.3228-11.0518-4.3228-17.3848,0-6.7764,1.4561-12.873,4.3701-18.2881,2.9121-5.415,6.9497-9.6572,12.1123-12.7295,5.1611-3.0713,11.0039-4.6074,17.5278-4.6074,3.8623,0,7.4722.5068,10.8296,1.5195,3.3564,1.0137,6.3652,2.3438,9.0254,3.9902l-3.7051,8.6445c-5.2578-3.5459-10.5449-5.3193-15.8652-5.3193-4.4336,0-8.5352,1.1719-12.3022,3.5146-3.769,2.3438-6.7778,5.5264-9.0254,9.5479-2.2485,4.0225-3.3721,8.4395-3.3721,13.252,0,4.9404,1.0283,9.4053,3.0874,13.3955,2.0571,3.9893,5.0024,7.1094,8.835,9.3574,3.8311,2.249,8.2485,3.3721,13.2524,3.3721,6.1426,0,11.4951-1.7412,16.0552-5.2246l3.895,8.2646c-2.2178,1.458-5.0205,2.8027-8.4077,4.0381Z" fill="#fff"/>
          <path d="M377.1704,902.3125v68.6846h-9.2153v-68.6846h9.2153Z" fill="#fff"/>
          <path d="M456.7793,902.3125v70.9648h-.2852l-50.4448-51.2051.1899,48.9248h-9.3101v-70.7744h.4751l50.3501,51.7744-.1899-49.6846h9.2148Z" fill="#fff"/>
          <path d="M536.3892,902.3125v70.9648h-.2852l-50.4448-51.2051.1899,48.9248h-9.3101v-70.7744h.4751l50.3501,51.7744-.1899-49.6846h9.2148Z" fill="#fff"/>
          <path d="M592.1533,952.9473h-26.4097l-7.3149,18.0498h-9.1201l30.02-71.5352h.5698l30.02,71.5352h-10.6401l-7.125-18.0498ZM589.0186,944.9678l-9.7852-25.0801-10.165,25.0801h19.9502Z" fill="#fff"/>
          <path d="M657.8936,902.3125v8.835h-18.4297v59.8496h-9.2153v-59.8496h-17.9546v-8.835h45.5996Z" fill="#fff"/>
          <path d="M681.8325,902.3125v68.6846h-9.2153v-68.6846h9.2153Z" fill="#fff"/>
          <path d="M759.2559,911.3369c-2.7876-.8223-5.415-1.2344-7.8848-1.2344-3.7378,0-6.6978.8398-8.8828,2.5176-2.1851,1.6787-3.2773,3.9746-3.2773,6.8867,0,2.8506,1.2827,5.1777,3.8477,6.9834,2.5649,1.8047,6.2222,3.5947,10.9722,5.3672,3.5464,1.2676,6.5391,2.6455,8.9775,4.1328,2.4375,1.4883,4.4653,3.5469,6.0801,6.1748,1.6152,2.6289,2.4224,5.9697,2.4224,10.0225,0,3.6738-.9185,6.999-2.7549,9.9746-1.8374,2.9775-4.4502,5.3203-7.8374,7.0303-3.3887,1.71-7.3623,2.5645-11.9224,2.5645-4.2441,0-8.3291-.6807-12.2554-2.042-3.9272-1.3613-7.3784-3.0879-10.355-5.1777l4.0854-7.3145c2.3423,1.7734,5.1611,3.2773,8.4546,4.5117,3.2925,1.2354,6.3652,1.8525,9.2153,1.8525,3.6724,0,6.8872-.9492,9.6426-2.8496,2.7549-1.9004,4.1323-4.7178,4.1323-8.4551,0-3.166-1.1562-5.6836-3.4678-7.5527-2.3125-1.8672-5.5571-3.625-9.7373-5.2725-3.8638-1.4561-7.0776-2.8809-9.6426-4.2744-2.5649-1.3926-4.7661-3.3086-6.6025-5.748-1.8374-2.4375-2.7549-5.4932-2.7549-9.167,0-5.3828,1.8838-9.7373,5.6523-13.0625,3.7676-3.3252,8.6602-5.083,14.6777-5.2725,7.4102,0,14.2812,1.8369,20.6147,5.5098l-3.5146,7.125c-2.4702-1.3301-5.0991-2.4062-7.8853-3.2305Z" fill="#fff"/>
          <path d="M828.937,969.9053c-3.3887,1.2344-7.0776,1.8516-11.0674,1.8516-7.0303,0-13.2212-1.5508-18.5728-4.6543-5.3525-3.1025-9.4688-7.2822-12.3496-12.54-2.8828-5.2568-4.3228-11.0518-4.3228-17.3848,0-6.7764,1.4561-12.873,4.3701-18.2881,2.9121-5.415,6.9497-9.6572,12.1123-12.7295,5.1611-3.0713,11.0039-4.6074,17.5278-4.6074,3.8623,0,7.4722.5068,10.8296,1.5195,3.3564,1.0137,6.3652,2.3438,9.0254,3.9902l-3.7051,8.6445c-5.2578-3.5459-10.5449-5.3193-15.8652-5.3193-4.4336,0-8.5352,1.1719-12.3022,3.5146-3.769,2.3438-6.7778,5.5264-9.0254,9.5479-2.2485,4.0225-3.3721,8.4395-3.3721,13.252,0,4.9404,1.0283,9.4053,3.0874,13.3955,2.0571,3.9893,5.0024,7.1094,8.835,9.3574,3.8311,2.249,8.2485,3.3721,13.2524,3.3721,6.1426,0,11.4951-1.7412,16.0552-5.2246l3.895,8.2646c-2.2178,1.458-5.0205,2.8027-8.4077,4.0381Z" fill="#fff"/>
          <path d="M907.2632,970.9971h-9.2148v-30.1152h-36.0049v30.1152h-9.2153v-68.6846h9.2153v29.7344h36.0049v-29.7344h9.2148v68.6846Z" fill="#fff"/>
          <path d="M927.4971,919.2227c3.166-5.3828,7.4248-9.6738,12.7773-12.873,5.3516-3.1973,11.1938-4.7969,17.5278-4.7969,6.27,0,12.0962,1.5996,17.48,4.7969,5.3823,3.1992,9.6733,7.4902,12.8726,12.873,3.1973,5.3838,4.7974,11.21,4.7974,17.4795,0,6.334-1.584,12.1924-4.75,17.5752-3.1675,5.3838-7.4575,9.6426-12.8726,12.7773s-11.2573,4.7021-17.5273,4.7021c-6.334,0-12.1929-1.5508-17.5752-4.6543-5.3838-3.1025-9.6426-7.3301-12.7773-12.6826-3.1353-5.3516-4.7026-11.2578-4.7026-17.7178,0-6.2695,1.5825-12.0957,4.75-17.4795ZM935.667,949.8125c2.2803,3.9902,5.3989,7.1572,9.3574,9.5,3.9575,2.3438,8.2798,3.5146,12.9678,3.5146s8.9775-1.1543,12.8726-3.4678c3.895-2.3105,6.9658-5.4766,9.2148-9.5,2.2476-4.0205,3.3726-8.4072,3.3726-13.1572s-1.1401-9.1514-3.4199-13.2051c-2.2803-4.0518-5.3838-7.251-9.3101-9.5947-3.9277-2.3428-8.2339-3.5146-12.9199-3.5146s-8.9941,1.1875-12.9199,3.5625c-3.9277,2.375-7.0156,5.5898-9.2627,9.6426-2.249,4.0537-3.3726,8.4541-3.3726,13.2041,0,4.6885,1.1401,9.0254,3.4199,13.0156Z" fill="#fff"/>
          <path d="M1008.9116,919.2227c3.166-5.3828,7.4248-9.6738,12.7773-12.873,5.3516-3.1973,11.1938-4.7969,17.5278-4.7969,6.27,0,12.0962,1.5996,17.48,4.7969,5.3823,3.1992,9.6733,7.4902,12.8726,12.873,3.1973,5.3838,4.7974,11.21,4.7974,17.4795,0,6.334-1.584,12.1924-4.75,17.5752-3.1675,5.3838-7.4575,9.6426-12.8726,12.7773s-11.2573,4.7021-17.5273,4.7021c-6.334,0-12.1929-1.5508-17.5752-4.6543-5.3838-3.1025-9.6426-7.3301-12.7773-12.6826-3.1353-5.3516-4.7026-11.2578-4.7026-17.7178,0-6.2695,1.5825-12.0957,4.75-17.4795ZM1017.0815,949.8125c2.2803,3.9902,5.3989,7.1572,9.3574,9.5,3.9575,2.3438,8.2798,3.5146,12.9678,3.5146s8.9775-1.1543,12.8726-3.4678c3.895-2.3105,6.9658-5.4766,9.2148-9.5,2.2476-4.0205,3.3726-8.4072,3.3726-13.1572s-1.1401-9.1514-3.4199-13.2051c-2.2803-4.0518-5.3838-7.251-9.3101-9.5947-3.9277-2.3428-8.2339-3.5146-12.9199-3.5146s-8.9941,1.1875-12.9199,3.5625c-3.9277,2.375-7.0156,5.5898-9.2627,9.6426-2.249,4.0537-3.3726,8.4541-3.3726,13.2041,0,4.6885,1.1401,9.0254,3.4199,13.0156Z" fill="#fff"/>
          <path d="M1099.0664,902.3125v59.7549h34.96v8.9297h-44.1753v-68.6846h9.2153Z" fill="#fff"/>
          <path d="M1187.21,971.9775c-5.064,0-8.8442-1.4531-11.3433-4.3613-2.499-2.9072-3.7485-6.6475-3.7485-11.2207,0-4.2139.7266-8.2158,2.1802-12.0049s3.4463-7.1377,5.978-10.0449c2.5312-2.9072,5.4224-5.2021,8.6733-6.8848,3.25-1.6826,6.6553-2.5234,10.2163-2.5234,5.063,0,8.8608,1.4785,11.3926,4.4346,2.5312,2.957,3.7974,6.7051,3.7974,11.2451,0,4.2139-.7271,8.208-2.1802,11.9805-1.4541,3.7734-3.4385,7.1133-5.9536,10.0205-2.5161,2.9082-5.4067,5.1943-8.6729,6.8604-3.2671,1.666-6.7134,2.499-10.3394,2.499ZM1186.769,970.0664c1.666,0,3.2905-.5469,4.8755-1.6416,1.584-1.0938,3.0947-2.5967,4.5327-4.5078,1.437-1.9111,2.7598-4.0918,3.9688-6.542,1.208-2.4492,2.2539-5.0225,3.1362-7.7168.8818-2.6953,1.5679-5.3818,2.0576-8.0605.4902-2.6787.7354-5.1943.7354-7.5459,0-2.2217-.5312-3.9697-1.5928-5.2432-1.0615-1.2744-2.687-1.9111-4.8755-1.9111-1.666,0-3.2915.5469-4.8755,1.6416-1.5845,1.0947-3.0952,2.5967-4.5322,4.5078-1.438,1.9111-2.7607,4.084-3.9692,6.5166-1.209,2.4346-2.2539,5.0068-3.1357,7.7178-.8823,2.7119-1.5684,5.4072-2.0581,8.085-.4902,2.6787-.7349,5.1943-.7349,7.5459,0,2.2217.522,3.9688,1.5679,5.2432,1.0449,1.2744,2.6782,1.9111,4.8999,1.9111Z" fill="#fff"/>
          <path d="M1209.75,996.4775c-2.4502,0-4.5156-.4336-6.1987-1.2988-1.6821-.8662-2.9561-1.9766-3.8218-3.332-.8652-1.3555-1.2983-2.752-1.2983-4.1895,0-1.96.5718-3.4717,1.7148-4.5322,1.144-1.0625,2.499-1.5928,4.0669-1.5928,1.6011,0,2.9644.4736,4.0918,1.4209,1.127.9473,1.6904,2.3193,1.6904,4.1162,0,1.1758-.2939,2.1885-.8823,3.0381-.5879.8486-1.3306,1.4941-2.2295,1.9355-.8979.4404-1.7886.6611-2.6704.6611-.9468,0-1.8452-.2207-2.6948-.6611-.8491-.4414-1.5596-1.0371-2.1318-1.7891-.5708-.751-.8574-1.6162-.8574-2.5967h1.9111c0,.9473.3354,1.96,1.0044,3.0381.6699,1.0781,1.6831,2.001,3.0381,2.7686,1.356.7676,3.0464,1.1514,5.0718,1.1514,1.8296,0,3.3892-.5068,4.6792-1.5186,1.291-1.0137,2.4097-2.459,3.3564-4.3369.9473-1.8789,1.7803-4.084,2.499-6.6152.7183-2.5312,1.437-5.3164,2.1562-8.3545l12.2007-52.9199c.7183-3.2012,1.6982-6.2549,2.9399-9.1631,1.2412-2.9072,2.7603-5.5039,4.5571-7.791,1.7964-2.2861,3.8872-4.0908,6.272-5.4141,2.3843-1.3232,5.0791-1.9844,8.085-1.9844,2.4502,0,4.5083.4326,6.1743,1.2979,1.666.8662,2.9316,1.9775,3.7974,3.332.8652,1.3564,1.2983,2.7529,1.2983,4.1895,0,1.8623-.5474,3.3496-1.6416,4.459-1.0947,1.1113-2.458,1.666-4.0913,1.666-1.5679,0-2.9321-.4727-4.0913-1.4209-1.1602-.9473-1.7397-2.3184-1.7397-4.1152,0-1.1436.2773-2.1318.833-2.9648.5552-.833,1.2817-1.4863,2.1807-1.96.8979-.4736,1.8535-.7109,2.8662-.7109.5884,0,1.2085.123,1.8623.3682.6528.2441,1.2656.5879,1.8374,1.0283.5713.4414,1.0288.9727,1.3721,1.5928.3428.6211.5146,1.3066.5146,2.0576h-1.8623c0-.9463-.3354-1.96-1.0044-3.0381-.6699-1.0771-1.666-2-2.9888-2.7676-1.3232-.7676-2.9648-1.1523-4.9248-1.1523-1.7969,0-3.332.5146-4.606,1.5439s-2.3687,2.4824-3.2832,4.3613-1.7476,4.0908-2.4985,6.6387c-.752,2.5488-1.4702,5.3584-2.1562,8.4287l-12.4458,52.7725c-.752,3.168-1.748,6.2061-2.9893,9.1143-1.2417,2.9072-2.7524,5.5039-4.5322,7.791-1.7812,2.2861-3.8711,4.0996-6.272,5.4395-2.4014,1.3389-5.1206,2.0088-8.1587,2.0088ZM1223.7148,927.8281v-1.9111h31.9482v1.9111h-31.9482Z" fill="#fff"/>
          <path d="M1356.0933,900.127v70.8701h-9.1201v-44.46l-25.27,35.8154h-.1899l-24.7949-34.5801v43.2246h-8.9302v-70.8701h.0952l33.8198,47.8799,34.2949-47.8799h.0952Z" fill="#fff"/>
          <path d="M1386.3965,954.8945c1.4565,2.4395,3.4351,4.3701,5.9375,5.7949,2.5015,1.4258,5.2725,2.1377,8.3125,2.1377,3.1665,0,6.0327-.6963,8.5977-2.0898,2.5649-1.3926,4.5747-3.3252,6.0327-5.7949,1.4561-2.4697,2.1851-5.2246,2.1851-8.2646v-44.3652h9.0249v44.6494c0,4.8779-1.1401,9.2002-3.4199,12.9678-2.2803,3.7686-5.3843,6.6826-9.3101,8.7402-3.9277,2.0586-8.2979,3.0869-13.1104,3.0869-4.75,0-9.0889-1.0283-13.0146-3.0869-3.9277-2.0576-7.0151-4.9717-9.2627-8.7402-2.249-3.7676-3.3726-8.0898-3.3726-12.9678v-44.6494h9.2153v44.3652c0,3.04.7271,5.7793,2.1846,8.2168Z" fill="#fff"/>
          <path d="M1473.0361,911.3369c-2.7876-.8223-5.415-1.2344-7.8848-1.2344-3.7378,0-6.6978.8398-8.8828,2.5176-2.1851,1.6787-3.2773,3.9746-3.2773,6.8867,0,2.8506,1.2827,5.1777,3.8477,6.9834,2.5649,1.8047,6.2222,3.5947,10.9722,5.3672,3.5464,1.2676,6.5391,2.6455,8.9775,4.1328,2.4375,1.4883,4.4653,3.5469,6.0801,6.1748,1.6152,2.6289,2.4224,5.9697,2.4224,10.0225,0,3.6738-.9185,6.999-2.7549,9.9746-1.8374,2.9775-4.4502,5.3203-7.8374,7.0303-3.3887,1.71-7.3623,2.5645-11.9224,2.5645-4.2441,0-8.3291-.6807-12.2554-2.042-3.9272-1.3613-7.3784-3.0879-10.355-5.1777l4.0854-7.3145c2.3423,1.7734,5.1611,3.2773,8.4546,4.5117,3.2925,1.2354,6.3652,1.8525,9.2153,1.8525,3.6724,0,6.8872-.9492,9.6426-2.8496,2.7549-1.9004,4.1323-4.7178,4.1323-8.4551,0-3.166-1.1562-5.6836-3.4678-7.5527-2.3125-1.8672-5.5571-3.625-9.7373-5.2725-3.8638-1.4561-7.0776-2.8809-9.6426-4.2744-2.5649-1.3926-4.7661-3.3086-6.6025-5.748-1.8374-2.4375-2.7549-5.4932-2.7549-9.167,0-5.3828,1.8838-9.7373,5.6523-13.0625,3.7676-3.3252,8.6602-5.083,14.6777-5.2725,7.4102,0,14.2812,1.8369,20.6147,5.5098l-3.5146,7.125c-2.4702-1.3301-5.0991-2.4062-7.8853-3.2305Z" fill="#fff"/>
          <path d="M1509.895,902.3125v68.6846h-9.2153v-68.6846h9.2153Z" fill="#fff"/>
          <path d="M1571.6919,969.9053c-3.3887,1.2344-7.0776,1.8516-11.0674,1.8516-7.0303,0-13.2212-1.5508-18.5728-4.6543-5.3525-3.1025-9.4688-7.2822-12.3496-12.54-2.8828-5.2568-4.3228-11.0518-4.3228-17.3848,0-6.7764,1.4561-12.873,4.3701-18.2881,2.9121-5.415,6.9497-9.6572,12.1123-12.7295,5.1611-3.0713,11.0039-4.6074,17.5278-4.6074,3.8623,0,7.4722.5068,10.8296,1.5195,3.3564,1.0137,6.3652,2.3438,9.0254,3.9902l-3.7051,8.6445c-5.2578-3.5459-10.5449-5.3193-15.8652-5.3193-4.4336,0-8.5352,1.1719-12.3022,3.5146-3.769,2.3438-6.7778,5.5264-9.0254,9.5479-2.2485,4.0225-3.3721,8.4395-3.3721,13.252,0,4.9404,1.0283,9.4053,3.0874,13.3955,2.0571,3.9893,5.0024,7.1094,8.835,9.3574,3.8311,2.249,8.2485,3.3721,13.2524,3.3721,6.1426,0,11.4951-1.7412,16.0552-5.2246l3.895,8.2646c-2.2178,1.458-5.0205,2.8027-8.4077,4.0381Z" fill="#fff"/>
        </g>
      </g>
    </g>
  </g>
</svg>