<?xml version="1.0" encoding="UTF-8"?>
<svg id="a" data-name="Layer 1" xmlns="http://www.w3.org/2000/svg" viewBox="0 0 375.0823 670">
  <path d="M310.3688,290.5663c-2.3575,4.9608-2.1573,4.6271-16.9216,33.2265,18.3183,18.3351,30.0764,28.3682,44.7737,43.0789,17.1436,17.1593,30.4929,40.2574,35.4571,62.498,14.075,80.0839-85.2515,155.845-172.3371,206.9591-15.2939,8.4548-34.7291,15.1309-53.2268,19.5579-34.3124,8.2529-77.1311,20.4212-110.5214,10.2336-102.3922-29.7264,29.2096-114.4774,100.1512-105.9956,18.632,4.3584,24.5392,21.5114,15.5032,34.1662-3.372,4.9282-15.2715,11.0904-20.8813,14.9531-30.823,20.9194,36.7925,17.9379,53.2103,16.0308,21.3199-14.792,47.3715-31.1792,62.2472-49.2722,38.872-43.1004,40.9517-99.4984,6.8919-139.2396-11.585-18.8297-34.7455-33.8473-52.3992-49.7947-16.1479-14.5626-23.0026-17.8969-39.1299-32.4681-3.4913.9742-39.6849,3.5862-42.6527,4.3776l.9998-1.0007c11.1083-12.7628,23.3423-28.9395,23.547-28.7932-1.6173-1.156-1.4184-1.5433-2.9018-2.9334-4.9015-4.9441-10.3408-10.5638-15.2569-15.4972-20.4616-21.3015-42.2269-44.143-60.973-66.2665-27.6124-36.1943-20.3606-86.8319,7.4357-125.875C108.8369,68.9476,246.8172-13.7611,325.6038,2.6104c38.303,10.7182,43.9974,28.5259,13.0391,51.9732-7.5372,5.9186-14.4531,12.3956-23.81,17.0958.0001-.0002-18.8569,9.3789-18.8569,9.3789-11.422,6.2026-26.4203,10.026-40.099,12.66-12.5026,2.375-32.5364,4.0206-40.125-2.8782-3.2159-2.7562-7.0946-5.6781-7.0782-9.5225-.7907-12.9459,17.1816-21.6245,27.9564-31.0304,2.098-2.8835-5.3619-4.4625-12.9653-3.5905-47.9485,6.7503-71.5167,18.0703-89.6079,51.0249-12.7089,27.7685-7.5939,59.278,15.1038,81.4816,8.026,7.4458,29.391,33.2944,36.4624,41.7717,24.3736,29.2167,55.2448,56.0249,84.9492,82.4528,14.555-5.3624,30.7406-8.9474,39.7965-12.8615" fill="#fff"/>
</svg>