<?xml version="1.0" encoding="UTF-8"?>
<svg id="a" data-name="Layer 1" xmlns="http://www.w3.org/2000/svg" viewBox="0 0 400 670">
  <path d="M326.3366,291.5954c-2.4857,4.8198-2.2763,4.4965-17.7941,32.2587,18.1735,18.3732,29.8734,28.4631,44.4545,43.2044,17.008,17.195,30.0565,40.14,34.6349,62.0698,12.6399,78.8865-89.4153,151.1843-178.586,199.5466-15.6496,7.9812-35.4552,14.1312-54.2669,18.0931-34.8955,7.3896-78.4795,18.4458-112.0718,7.7568-103.0421-31.2922,31.8614-111.7451,103.4963-101.9533,18.7713,4.6629,24.4063,21.6192,15.0065,33.8518-3.5119,4.7669-15.6798,10.5683-21.4353,14.2431-31.6177,19.8928,36.8805,18.3657,53.5363,16.8336,21.8761-14.0759,48.5735-29.6196,63.9931-47.0685,40.2097-41.495,43.446-96.8016,9.7689-136.5088-11.3482-18.7193-34.4894-33.937-52.0381-49.9531-16.0523-14.626-22.9235-18.0401-38.9548-32.6741-3.5534.8838-40.2398,2.6985-43.2597,3.4138l1.0321-.9615c11.4995-12.2957,24.2069-27.9186,24.4111-27.7708-1.6138-1.168-1.4047-1.544-2.8783-2.9389-4.862-4.9536-10.2548-10.5814-15.1317-15.5248-20.2833-21.3289-41.8553-44.1961-60.3858-66.2961-27.2224-36.0927-18.8665-85.639,10.0512-123.3813C126.7976,69.927,268.1163-8.3897,347.5333,9.3074c38.5542,11.3114,43.9606,28.9059,12.1552,51.2769-7.7476,5.6527-14.8776,11.8662-24.4427,16.2854.0001-.0002-19.2745,8.8144-19.2745,8.8144-11.6854,5.851-26.943,9.2931-40.841,11.5951-12.7024,2.0722-33.0131,3.2727-40.5556-3.6548-3.1998-2.7715-7.067-5.7193-6.9734-9.4919-.5407-12.7216,17.8245-20.8671,28.9191-29.8752,2.1814-2.7865-5.3376-4.4905-13.0511-3.792-48.6675,5.6329-72.7495,16.2548-91.7221,48.2226-13.4206,26.9894-8.8754,58.0189,13.6531,80.2794,7.9743,7.4734,29.0808,33.2835,36.0682,41.7496,24.0841,29.1778,54.7933,56.1264,84.3291,82.6775,14.8397-4.9616,31.2942-8.1451,40.5388-11.7991" fill="#231f20"/>
</svg>