<?xml version="1.0" encoding="UTF-8"?>
<svg xmlns="http://www.w3.org/2000/svg" viewBox="0 0 1703.4609 1011.0938">
  <g isolation="isolate">
    <g id="a" data-name="Layer 1">
      <g>
        <path d="M56.2324,452.9893c0-183.9189,153.4482-327.9736,351.6914-327.9736,62.9043,0,120.0903,14.4961,172.5107,40.7695l-14.2969,69.7627c-44.7949-28.0859-101.981-45.2998-160.1196-45.2998-151.542,0-273.5381,115.9688-273.5381,262.7412s121.043,262.7412,273.5381,262.7412c63.8569,0,118.1836-19.0254,168.6978-50.7363l14.2964,69.7627c-55.2798,29.8984-117.231,46.2061-182.9941,46.2061-196.3374,0-349.7856-144.0547-349.7856-327.9736Z" fill="#fff"/>
        <g mix-blend-mode="lighten">
          <path d="M1629.3018,123.1738v654.6328h-68.3506v-410.6816l-189.3887,330.8262h-1.4238l-185.8291-319.418v399.2734h-66.9268V123.1738h.7119l253.4678,442.2715,257.0273-442.2715h.7119Z" fill="#fff" stroke="#fff" stroke-miterlimit="10" stroke-width=".25"/>
        </g>
      </g>
      <g>
        <path d="M169.5508,969.9043c-3.3887,1.2354-7.0776,1.8525-11.0674,1.8525-7.0303,0-13.2212-1.5508-18.5728-4.6553-5.3525-3.1025-9.4688-7.2822-12.3496-12.54-2.8828-5.2559-4.3228-11.0508-4.3228-17.3848,0-6.7764,1.4561-12.8721,4.3701-18.2871,2.9121-5.415,6.9497-9.6572,12.1123-12.7305,5.1611-3.0713,11.0039-4.6074,17.5278-4.6074,3.8623,0,7.4722.5078,10.8296,1.5205,3.3564,1.0137,6.3652,2.3438,9.0254,3.9893l-3.7051,8.6455c-5.2578-3.5459-10.5449-5.3203-15.8652-5.3203-4.4336,0-8.5352,1.1729-12.3022,3.5146-3.769,2.3447-6.7778,5.5264-9.0254,9.5479-2.2485,4.0225-3.3721,8.4404-3.3721,13.2529,0,4.9395,1.0283,9.4043,3.0874,13.3945,2.0571,3.9902,5.0024,7.1104,8.835,9.3574,3.8311,2.249,8.2485,3.373,13.2524,3.373,6.1426,0,11.4951-1.7412,16.0552-5.2256l3.895,8.2656c-2.2178,1.457-5.0205,2.8018-8.4077,4.0371Z" fill="#fff"/>
        <path d="M202.6572,902.3115v68.6855h-9.2153v-68.6855h9.2153Z" fill="#fff"/>
        <path d="M282.2661,902.3115v70.9648h-.2852l-50.4448-51.2041.1899,48.9248h-9.3101v-70.7754h.4751l50.3501,51.7754-.1899-49.6855h9.2148Z" fill="#fff"/>
        <path d="M344.0635,969.9043c-3.3887,1.2354-7.0776,1.8525-11.0674,1.8525-7.0303,0-13.2212-1.5508-18.5728-4.6553-5.3525-3.1025-9.4688-7.2822-12.3496-12.54-2.8828-5.2559-4.3228-11.0508-4.3228-17.3848,0-6.7764,1.4561-12.8721,4.3701-18.2871,2.9121-5.415,6.9497-9.6572,12.1123-12.7305,5.1611-3.0713,11.0039-4.6074,17.5278-4.6074,3.8623,0,7.4722.5078,10.8296,1.5205,3.3564,1.0137,6.3652,2.3438,9.0254,3.9893l-3.7051,8.6455c-5.2578-3.5459-10.5449-5.3203-15.8652-5.3203-4.4336,0-8.5352,1.1729-12.3022,3.5146-3.769,2.3447-6.7778,5.5264-9.0254,9.5479-2.2485,4.0225-3.3721,8.4404-3.3721,13.2529,0,4.9395,1.0283,9.4043,3.0874,13.3945,2.0571,3.9902,5.0024,7.1104,8.835,9.3574,3.8311,2.249,8.2485,3.373,13.2524,3.373,6.1426,0,11.4951-1.7412,16.0552-5.2256l3.895,8.2656c-2.2178,1.457-5.0205,2.8018-8.4077,4.0371Z" fill="#fff"/>
        <path d="M377.1699,902.3115v68.6855h-9.2153v-68.6855h9.2153Z" fill="#fff"/>
        <path d="M456.7788,902.3115v70.9648h-.2852l-50.4448-51.2041.1899,48.9248h-9.3101v-70.7754h.4751l50.3501,51.7754-.1899-49.6855h9.2148Z" fill="#fff"/>
        <path d="M536.3887,902.3115v70.9648h-.2852l-50.4448-51.2041.1899,48.9248h-9.3101v-70.7754h.4751l50.3501,51.7754-.1899-49.6855h9.2148Z" fill="#fff"/>
        <path d="M592.1528,952.9473h-26.4097l-7.3149,18.0498h-9.1201l30.02-71.5352h.5698l30.02,71.5352h-10.6401l-7.125-18.0498ZM589.0181,944.9668l-9.7852-25.0801-10.165,25.0801h19.9502Z" fill="#fff"/>
        <path d="M657.8931,902.3115v8.835h-18.4297v59.8506h-9.2153v-59.8506h-17.9546v-8.835h45.5996Z" fill="#fff"/>
        <path d="M681.832,902.3115v68.6855h-9.2153v-68.6855h9.2153Z" fill="#fff"/>
        <path d="M759.2554,911.3369c-2.7876-.8223-5.415-1.2354-7.8848-1.2354-3.7378,0-6.6978.8408-8.8828,2.5176-2.1851,1.6787-3.2773,3.9756-3.2773,6.8877,0,2.8496,1.2827,5.1777,3.8477,6.9824s6.2222,3.5957,10.9722,5.3672c3.5464,1.2676,6.5391,2.6455,8.9775,4.1328,2.4375,1.4893,4.4653,3.5479,6.0801,6.1748,1.6152,2.6289,2.4224,5.9707,2.4224,10.0225,0,3.6738-.9185,6.999-2.7549,9.9756-1.8374,2.9775-4.4502,5.3193-7.8374,7.0293-3.3887,1.71-7.3623,2.5654-11.9224,2.5654-4.2441,0-8.3291-.6816-12.2554-2.043-3.9272-1.3604-7.3784-3.0869-10.355-5.1768l4.0854-7.3154c2.3423,1.7744,5.1611,3.2773,8.4546,4.5127,3.2925,1.2354,6.3652,1.8525,9.2153,1.8525,3.6724,0,6.8872-.9502,9.6426-2.8496,2.7549-1.9004,4.1323-4.7178,4.1323-8.4551,0-3.167-1.1562-5.6836-3.4678-7.5527-2.3125-1.8672-5.5571-3.625-9.7373-5.2725-3.8638-1.4561-7.0776-2.8818-9.6426-4.2754-2.5649-1.3926-4.7661-3.3086-6.6025-5.7471-1.8374-2.4375-2.7549-5.4941-2.7549-9.168,0-5.3818,1.8838-9.7373,5.6523-13.0625,3.7676-3.3252,8.6602-5.082,14.6777-5.2725,7.4102,0,14.2812,1.8379,20.6147,5.5098l-3.5146,7.125c-2.4702-1.3291-5.0991-2.4053-7.8853-3.2295Z" fill="#fff"/>
        <path d="M828.9365,969.9043c-3.3887,1.2354-7.0776,1.8525-11.0674,1.8525-7.0303,0-13.2212-1.5508-18.5728-4.6553-5.3525-3.1025-9.4688-7.2822-12.3496-12.54-2.8828-5.2559-4.3228-11.0508-4.3228-17.3848,0-6.7764,1.4561-12.8721,4.3701-18.2871,2.9121-5.415,6.9497-9.6572,12.1123-12.7305,5.1611-3.0713,11.0039-4.6074,17.5278-4.6074,3.8623,0,7.4722.5078,10.8296,1.5205,3.3564,1.0137,6.3652,2.3438,9.0254,3.9893l-3.7051,8.6455c-5.2578-3.5459-10.5449-5.3203-15.8652-5.3203-4.4336,0-8.5352,1.1729-12.3022,3.5146-3.769,2.3447-6.7778,5.5264-9.0254,9.5479-2.2485,4.0225-3.3721,8.4404-3.3721,13.2529,0,4.9395,1.0283,9.4043,3.0874,13.3945,2.0571,3.9902,5.0024,7.1104,8.835,9.3574,3.8311,2.249,8.2485,3.373,13.2524,3.373,6.1426,0,11.4951-1.7412,16.0552-5.2256l3.895,8.2656c-2.2178,1.457-5.0205,2.8018-8.4077,4.0371Z" fill="#fff"/>
        <path d="M907.2627,970.9971h-9.2148v-30.1152h-36.0049v30.1152h-9.2153v-68.6855h9.2153v29.7354h36.0049v-29.7354h9.2148v68.6855Z" fill="#fff"/>
        <path d="M927.4966,919.2217c3.166-5.3818,7.4248-9.6738,12.7773-12.8721,5.3516-3.1973,11.1938-4.7979,17.5278-4.7979,6.27,0,12.0962,1.6006,17.48,4.7979,5.3823,3.1982,9.6733,7.4902,12.8726,12.8721,3.1973,5.3838,4.7974,11.21,4.7974,17.4805,0,6.334-1.584,12.1924-4.75,17.5742-3.1675,5.3848-7.4575,9.6426-12.8726,12.7783-5.415,3.1348-11.2573,4.7021-17.5273,4.7021-6.334,0-12.1929-1.5508-17.5752-4.6553-5.3838-3.1025-9.6426-7.3291-12.7773-12.6826-3.1353-5.3506-4.7026-11.2568-4.7026-17.7168,0-6.2705,1.5825-12.0967,4.75-17.4805ZM935.6665,949.8115c2.2803,3.9902,5.3989,7.1582,9.3574,9.5,3.9575,2.3438,8.2798,3.5156,12.9678,3.5156s8.9775-1.1553,12.8726-3.4678c3.895-2.3115,6.9658-5.4775,9.2148-9.5,2.2476-4.0215,3.3726-8.4072,3.3726-13.1572s-1.1401-9.1514-3.4199-13.2051c-2.2803-4.0527-5.3838-7.251-9.3101-9.5957-3.9277-2.3418-8.2339-3.5146-12.9199-3.5146s-8.9941,1.1875-12.9199,3.5625c-3.9277,2.375-7.0156,5.5898-9.2627,9.6426-2.249,4.0537-3.3726,8.4551-3.3726,13.2051,0,4.6875,1.1401,9.0254,3.4199,13.0146Z" fill="#fff"/>
        <path d="M1008.9111,919.2217c3.166-5.3818,7.4248-9.6738,12.7773-12.8721,5.3516-3.1973,11.1938-4.7979,17.5278-4.7979,6.27,0,12.0962,1.6006,17.48,4.7979,5.3823,3.1982,9.6733,7.4902,12.8726,12.8721,3.1973,5.3838,4.7974,11.21,4.7974,17.4805,0,6.334-1.584,12.1924-4.75,17.5742-3.1675,5.3848-7.4575,9.6426-12.8726,12.7783-5.415,3.1348-11.2573,4.7021-17.5273,4.7021-6.334,0-12.1929-1.5508-17.5752-4.6553-5.3838-3.1025-9.6426-7.3291-12.7773-12.6826-3.1353-5.3506-4.7026-11.2568-4.7026-17.7168,0-6.2705,1.5825-12.0967,4.75-17.4805ZM1017.0811,949.8115c2.2803,3.9902,5.3989,7.1582,9.3574,9.5,3.9575,2.3438,8.2798,3.5156,12.9678,3.5156s8.9775-1.1553,12.8726-3.4678c3.895-2.3115,6.9658-5.4775,9.2148-9.5,2.2476-4.0215,3.3726-8.4072,3.3726-13.1572s-1.1401-9.1514-3.4199-13.2051c-2.2803-4.0527-5.3838-7.251-9.3101-9.5957-3.9277-2.3418-8.2339-3.5146-12.9199-3.5146s-8.9941,1.1875-12.9199,3.5625c-3.9277,2.375-7.0156,5.5898-9.2627,9.6426-2.249,4.0537-3.3726,8.4551-3.3726,13.2051,0,4.6875,1.1401,9.0254,3.4199,13.0146Z" fill="#fff"/>
        <path d="M1099.0659,902.3115v59.7549h34.96v8.9307h-44.1753v-68.6855h9.2153Z" fill="#fff"/>
        <path d="M1187.2095,971.9766c-5.064,0-8.8442-1.4531-11.3433-4.3604s-3.7485-6.6475-3.7485-11.2217c0-4.2139.7266-8.2148,2.1802-12.0049,1.4536-3.7891,3.4463-7.1367,5.978-10.0449,2.5312-2.9072,5.4224-5.2012,8.6733-6.8848,3.25-1.6816,6.6553-2.5234,10.2163-2.5234,5.063,0,8.8608,1.4785,11.3926,4.4346,2.5312,2.957,3.7974,6.7061,3.7974,11.2461,0,4.2139-.7271,8.207-2.1802,11.9805-1.4541,3.7725-3.4385,7.1133-5.9536,10.0205-2.5161,2.9072-5.4067,5.1934-8.6729,6.8594-3.2671,1.666-6.7134,2.499-10.3394,2.499ZM1186.7686,970.0654c1.666,0,3.2905-.5459,4.8755-1.6406,1.584-1.0947,3.0947-2.5977,4.5327-4.5088,1.437-1.9111,2.7598-4.0908,3.9688-6.541,1.208-2.4502,2.2539-5.0225,3.1362-7.7178.8818-2.6953,1.5679-5.3818,2.0576-8.0605.4902-2.6777.7354-5.1943.7354-7.5459,0-2.2207-.5312-3.9688-1.5928-5.2432-1.0615-1.2734-2.687-1.9111-4.8755-1.9111-1.666,0-3.2915.5479-4.8755,1.6416-1.5845,1.0947-3.0952,2.5977-4.5322,4.5078-1.438,1.9111-2.7607,4.084-3.9692,6.5176-1.209,2.4336-2.2539,5.0059-3.1357,7.7178-.8823,2.7109-1.5684,5.4062-2.0581,8.085-.4902,2.6787-.7349,5.1934-.7349,7.5459,0,2.2217.522,3.9688,1.5679,5.2432,1.0449,1.2734,2.6782,1.9102,4.8999,1.9102Z" fill="#fff"/>
        <path d="M1209.7495,996.4766c-2.4502,0-4.5156-.4326-6.1987-1.2979-1.6821-.8662-2.9561-1.9775-3.8218-3.332-.8652-1.3564-1.2983-2.7529-1.2983-4.1895,0-1.96.5718-3.4717,1.7148-4.5332,1.144-1.0615,2.499-1.5918,4.0669-1.5918,1.6011,0,2.9644.4727,4.0918,1.4209,1.127.9473,1.6904,2.3184,1.6904,4.1152,0,1.1768-.2939,2.1885-.8823,3.0381-.5879.8496-1.3306,1.4951-2.2295,1.9355-.8979.4414-1.7886.6621-2.6704.6621-.9468,0-1.8452-.2207-2.6948-.6621-.8491-.4404-1.5596-1.0371-2.1318-1.7881-.5708-.752-.8574-1.6172-.8574-2.5967h1.9111c0,.9463.3354,1.96,1.0044,3.0381.6699,1.0771,1.6831,2,3.0381,2.7676,1.356.7676,3.0464,1.1523,5.0718,1.1523,1.8296,0,3.3892-.5068,4.6792-1.5195,1.291-1.0127,2.4097-2.458,3.3564-4.3359.9473-1.8789,1.7803-4.084,2.499-6.6152.7183-2.5322,1.437-5.3164,2.1562-8.3545l12.2007-52.9199c.7183-3.2012,1.6982-6.2559,2.9399-9.1631,1.2412-2.9072,2.7603-5.5039,4.5571-7.791,1.7964-2.2861,3.8872-4.0918,6.272-5.415,2.3843-1.3223,5.0791-1.9844,8.085-1.9844,2.4502,0,4.5083.4336,6.1743,1.2988,1.666.8662,2.9316,1.9766,3.7974,3.332.8652,1.3555,1.2983,2.752,1.2983,4.1895,0,1.8623-.5474,3.3486-1.6416,4.459-1.0947,1.1113-2.458,1.666-4.0913,1.666-1.5679,0-2.9321-.4736-4.0913-1.4209-1.1602-.9473-1.7397-2.3193-1.7397-4.1162,0-1.1426.2773-2.1318.833-2.9648.5552-.833,1.2817-1.4854,2.1807-1.96.8979-.4727,1.8535-.71,2.8662-.71.5884,0,1.2085.1221,1.8623.3672.6528.2451,1.2656.5879,1.8374,1.0293.5713.4404,1.0288.9717,1.3721,1.5928.3428.6201.5146,1.3066.5146,2.0576h-1.8623c0-.9473-.3354-1.96-1.0044-3.0381-.6699-1.0781-1.666-2.001-2.9888-2.7686-1.3232-.7676-2.9648-1.1514-4.9248-1.1514-1.7969,0-3.332.5146-4.606,1.543-1.2739,1.0293-2.3687,2.4834-3.2832,4.3613-.9146,1.8789-1.7476,4.0918-2.4985,6.6396-.752,2.5479-1.4702,5.3574-2.1562,8.4277l-12.4458,52.7734c-.752,3.168-1.748,6.2061-2.9893,9.1143-1.2417,2.9062-2.7524,5.5039-4.5322,7.791-1.7812,2.2861-3.8711,4.0986-6.272,5.4385-2.4014,1.3389-5.1206,2.0088-8.1587,2.0088ZM1223.7144,927.8281v-1.9111h31.9482v1.9111h-31.9482Z" fill="#fff"/>
        <path d="M1356.0928,900.127v70.8701h-9.1201v-44.46l-25.27,35.8145h-.1899l-24.7949-34.5801v43.2256h-8.9302v-70.8701h.0952l33.8198,47.8799,34.2949-47.8799h.0952Z" fill="#fff"/>
        <path d="M1386.396,954.8945c1.4565,2.4385,3.4351,4.3701,5.9375,5.7949,2.5015,1.4248,5.2725,2.1377,8.3125,2.1377,3.1665,0,6.0327-.6963,8.5977-2.0898,2.5649-1.3926,4.5747-3.3252,6.0327-5.7959,1.4561-2.4697,2.1851-5.2246,2.1851-8.2646v-44.3652h9.0249v44.6504c0,4.8779-1.1401,9.2002-3.4199,12.9678-2.2803,3.7686-5.3843,6.6826-9.3101,8.7393-3.9277,2.0596-8.2979,3.0879-13.1104,3.0879-4.75,0-9.0889-1.0283-13.0146-3.0879-3.9277-2.0566-7.0151-4.9707-9.2627-8.7393-2.249-3.7676-3.3726-8.0898-3.3726-12.9678v-44.6504h9.2153v44.3652c0,3.04.7271,5.7803,2.1846,8.2178Z" fill="#fff"/>
        <path d="M1473.0356,911.3369c-2.7876-.8223-5.415-1.2354-7.8848-1.2354-3.7378,0-6.6978.8408-8.8828,2.5176-2.1851,1.6787-3.2773,3.9756-3.2773,6.8877,0,2.8496,1.2827,5.1777,3.8477,6.9824s6.2222,3.5957,10.9722,5.3672c3.5464,1.2676,6.5391,2.6455,8.9775,4.1328,2.4375,1.4893,4.4653,3.5479,6.0801,6.1748,1.6152,2.6289,2.4224,5.9707,2.4224,10.0225,0,3.6738-.9185,6.999-2.7549,9.9756-1.8374,2.9775-4.4502,5.3193-7.8374,7.0293-3.3887,1.71-7.3623,2.5654-11.9224,2.5654-4.2441,0-8.3291-.6816-12.2554-2.043-3.9272-1.3604-7.3784-3.0869-10.355-5.1768l4.0854-7.3154c2.3423,1.7744,5.1611,3.2773,8.4546,4.5127,3.2925,1.2354,6.3652,1.8525,9.2153,1.8525,3.6724,0,6.8872-.9502,9.6426-2.8496,2.7549-1.9004,4.1323-4.7178,4.1323-8.4551,0-3.167-1.1562-5.6836-3.4678-7.5527-2.3125-1.8672-5.5571-3.625-9.7373-5.2725-3.8638-1.4561-7.0776-2.8818-9.6426-4.2754-2.5649-1.3926-4.7661-3.3086-6.6025-5.7471-1.8374-2.4375-2.7549-5.4941-2.7549-9.168,0-5.3818,1.8838-9.7373,5.6523-13.0625,3.7676-3.3252,8.6602-5.082,14.6777-5.2725,7.4102,0,14.2812,1.8379,20.6147,5.5098l-3.5146,7.125c-2.4702-1.3291-5.0991-2.4053-7.8853-3.2295Z" fill="#fff"/>
        <path d="M1509.8945,902.3115v68.6855h-9.2153v-68.6855h9.2153Z" fill="#fff"/>
        <path d="M1571.6914,969.9043c-3.3887,1.2354-7.0776,1.8525-11.0674,1.8525-7.0303,0-13.2212-1.5508-18.5728-4.6553-5.3525-3.1025-9.4688-7.2822-12.3496-12.54-2.8828-5.2559-4.3228-11.0508-4.3228-17.3848,0-6.7764,1.4561-12.8721,4.3701-18.2871,2.9121-5.415,6.9497-9.6572,12.1123-12.7305,5.1611-3.0713,11.0039-4.6074,17.5278-4.6074,3.8623,0,7.4722.5078,10.8296,1.5205,3.3564,1.0137,6.3652,2.3438,9.0254,3.9893l-3.7051,8.6455c-5.2578-3.5459-10.5449-5.3203-15.8652-5.3203-4.4336,0-8.5352,1.1729-12.3022,3.5146-3.769,2.3447-6.7778,5.5264-9.0254,9.5479-2.2485,4.0225-3.3721,8.4404-3.3721,13.2529,0,4.9395,1.0283,9.4043,3.0874,13.3945,2.0571,3.9902,5.0024,7.1104,8.835,9.3574,3.8311,2.249,8.2485,3.373,13.2524,3.373,6.1426,0,11.4951-1.7412,16.0552-5.2256l3.895,8.2656c-2.2178,1.457-5.0205,2.8018-8.4077,4.0371Z" fill="#fff"/>
      </g>
      <path d="M974.5473,413.0347c-2.3579,4.9571-2.1576,4.6236-16.9245,33.2016,18.3214,18.3214,30.0815,28.347,44.7811,43.0467,17.1465,17.1465,30.498,40.2274,35.463,62.4514,14.0774,80.0241-85.2657,155.7286-172.3658,206.8045-15.2964,8.4485-34.7348,15.1196-53.2357,19.5433-34.3181,8.2467-77.144,20.4059-110.5398,10.2259-102.4093-29.7042,29.2144-114.3919,100.1679-105.9164,18.6351,4.3552,24.5432,21.4954,15.5058,34.1407-3.3726,4.9246-15.274,11.0822-20.8847,14.9419-30.8281,20.9038,36.7987,17.9246,53.2192,16.0188,21.3234-14.7809,47.3794-31.1559,62.2575-49.2354,38.8785-43.0682,40.9585-99.424,6.893-139.1357-11.5869-18.8156-34.7512-33.822-52.4079-49.7575-16.1506-14.5518-23.0064-17.8835-39.1364-32.4438-3.4919.9734-39.6915,3.5835-42.6598,4.3743l1-1c11.1101-12.7532,23.3462-28.9179,23.5509-28.7717-1.6176-1.1552-1.4186-1.5422-2.9023-2.9312-4.9024-4.9404-10.3426-10.5559-15.2595-15.4856-20.465-21.2856-42.2339-44.1101-60.9832-66.217-27.617-36.1672-20.3639-86.767,7.437-125.781,35.4587-49.5269,173.462-132.1738,252.2617-115.8146,38.3094,10.7102,44.0047,28.5046,13.0413,51.9344-7.5384,5.9142-14.4555,12.3863-23.8139,17.083.0001-.0002-18.86,9.3719-18.86,9.3719-11.4239,6.198-26.4247,10.0185-40.1057,12.6505-12.5046,2.3733-32.5418,4.0176-40.1317-2.876-3.2164-2.7541-7.0958-5.6738-7.0794-9.5154-.7909-12.9362,17.1845-21.6084,27.9611-31.0072,2.0984-2.8814-5.3628-4.4591-12.9675-3.5878-47.9565,6.7453-71.5286,18.0568-89.6229,50.9868-12.711,27.7478-7.5951,59.2337,15.1063,81.4208,8.0273,7.4402,29.3959,33.2695,36.4685,41.7405,24.3776,29.1949,55.254,55.983,84.9634,82.3912,14.5574-5.3584,30.7457-8.9407,39.8031-12.8519" fill="#fff"/>
    </g>
  </g>
</svg>
