<?xml version="1.0" encoding="UTF-8"?>
<svg xmlns="http://www.w3.org/2000/svg" viewBox="0 0 1703.4609 1011.0938">
  <g isolation="isolate">
    <g id="a" data-name="Layer 1">
      <path d="M56.2324,452.9893c0-183.9189,153.4473-327.9736,351.6914-327.9736,62.9043,0,120.0898,14.4961,172.5098,40.7695l-14.2959,69.7627c-44.7959-28.0859-101.9814-45.2998-160.1201-45.2998-151.542,0-273.5381,115.9688-273.5381,262.7412s121.043,262.7412,273.5381,262.7412c63.8574,0,118.1836-19.0254,168.6973-50.7363l14.2969,69.7627c-55.2793,29.8984-117.2305,46.2061-182.9941,46.2061-196.3379,0-349.7852-144.0547-349.7852-327.9736Z" fill="#fff"/>
      <g mix-blend-mode="lighten">
        <path d="M1629.3008,132.1738v654.6328h-68.3496v-410.6816l-189.3887,330.8262h-1.4238l-185.8301-319.418v399.2734h-66.9258V132.1738h.7119l253.4678,442.2715,257.0273-442.2715h.7109Z" fill="#fff" stroke="#fff" stroke-miterlimit="10" stroke-width=".25"/>
      </g>
      <path d="M974.5473,415.0347c-2.3579,4.9571-2.1576,4.6236-16.9245,33.2016,18.3214,18.3214,30.0815,28.347,44.7811,43.0467,17.1465,17.1465,30.498,40.2274,35.463,62.4514,14.0774,80.0241-85.2657,155.7286-172.3658,206.8045-15.2964,8.4485-34.7348,15.1196-53.2357,19.5433-34.3181,8.2467-77.144,20.4059-110.5398,10.2259-102.4093-29.7042,29.2144-114.3919,100.1679-105.9164,18.6351,4.3552,24.5432,21.4954,15.5058,34.1407-3.3726,4.9246-15.274,11.0822-20.8847,14.9419-30.8281,20.9038,36.7987,17.9246,53.2192,16.0188,21.3234-14.7809,47.3794-31.1559,62.2575-49.2354,38.8785-43.0682,40.9585-99.424,6.893-139.1357-11.5869-18.8156-34.7512-33.822-52.4079-49.7575-16.1506-14.5518-23.0064-17.8835-39.1364-32.4438-3.4919.9734-39.6915,3.5835-42.6598,4.3743l1-1c11.1101-12.7532,23.3462-28.9179,23.5509-28.7717-1.6176-1.1552-1.4186-1.5422-2.9023-2.9312-4.9024-4.9404-10.3426-10.5559-15.2595-15.4856-20.465-21.2856-42.2339-44.1101-60.9832-66.217-27.617-36.1672-20.3639-86.767,7.437-125.781,35.4587-49.5269,173.462-132.1738,252.2617-115.8146,38.3094,10.7102,44.0047,28.5046,13.0413,51.9344-7.5384,5.9142-14.4555,12.3863-23.8139,17.083.0001-.0002-18.86,9.3719-18.86,9.3719-11.4239,6.198-26.4247,10.0185-40.1057,12.6505-12.5046,2.3733-32.5418,4.0176-40.1317-2.876-3.2164-2.7541-7.0958-5.6738-7.0794-9.5154-.7909-12.9362,17.1845-21.6084,27.9611-31.0072,2.0984-2.8814-5.3628-4.4591-12.9675-3.5878-47.9565,6.7453-71.5286,18.0568-89.6229,50.9868-12.711,27.7478-7.5951,59.2337,15.1063,81.4208,8.0273,7.4402,29.3959,33.2695,36.4685,41.7405,24.3776,29.1949,55.254,55.983,84.9634,82.3912,14.5574-5.3584,30.7457-8.9407,39.8031-12.8519" fill="#fff"/>
    </g>
  </g>
</svg>
